<svg width="1920" height="1080" viewBox="0 0 1920 1080" fill="none" xmlns="http://www.w3.org/2000/svg">
  <rect width="1920" height="1080" fill="url(#gradient-hero)"/>
  
  <!-- Geological layers pattern -->
  <path d="M0 600 Q480 550 960 600 T1920 600 L1920 1080 L0 1080 Z" fill="#D97706" opacity="0.05"/>
  <path d="M0 700 Q480 650 960 700 T1920 700 L1920 1080 L0 1080 Z" fill="#B45309" opacity="0.05"/>
  <path d="M0 800 Q480 750 960 800 T1920 800 L1920 1080 L0 1080 Z" fill="#92400E" opacity="0.05"/>
  
  <!-- Mineral particles -->
  <circle cx="200" cy="200" r="80" fill="#3B82F6" opacity="0.1"/>
  <circle cx="600" cy="400" r="60" fill="#EC4899" opacity="0.08"/>
  <circle cx="1000" cy="300" r="100" fill="#16A34A" opacity="0.06"/>
  <circle cx="1400" cy="500" r="70" fill="#F59E0B" opacity="0.09"/>
  <circle cx="1700" cy="200" r="90" fill="#6B7280" opacity="0.07"/>
  
  <!-- Crystal formations -->
  <polygon points="300,600 350,500 400,600 350,700" fill="#3B82F6" opacity="0.15"/>
  <polygon points="800,400 850,300 900,400 850,500" fill="#EC4899" opacity="0.12"/>
  <polygon points="1200,600 1250,500 1300,600 1250,700" fill="#16A34A" opacity="0.10"/>
  
  <!-- Connecting lines -->
  <path d="M200 200 L600 400 L1000 300 L1400 500" stroke="#D97706" stroke-width="2" opacity="0.2"/>
  <path d="M300 600 L800 400 L1200 600 L1700 200" stroke="#3B82F6" stroke-width="2" opacity="0.15"/>
  
  <defs>
    <linearGradient id="gradient-hero" x1="0%" y1="0%" x2="100%" y2="100%">
      <stop offset="0%" style="stop-color:#FEF3C7;stop-opacity:0.5" />
      <stop offset="50%" style="stop-color:#F3F4F6;stop-opacity:0.3" />
      <stop offset="100%" style="stop-color:#FEE2E2;stop-opacity:0.5" />
    </linearGradient>
  </defs>
</svg>